<svg width="24" height="24" viewBox="0 0 24 24" fill="none" xmlns="http://www.w3.org/2000/svg">
<path fill-rule="evenodd" clip-rule="evenodd" d="M10.2049 5.70957C10.677 5.25521 11.3171 5 11.9844 5C12.6518 5 13.2918 5.25521 13.764 5.70957L23.2628 14.8582C23.735 15.3133 24.0002 15.9306 24 16.5741C23.9998 17.2176 23.7344 17.8348 23.2619 18.2897C22.7895 18.7447 22.1489 19.0002 21.481 19C20.813 18.9998 20.1725 18.7441 19.7003 18.2889L11.9844 10.8549L4.26855 18.2889C3.79383 18.7311 3.15783 18.9759 2.49755 18.9707C1.83727 18.9655 1.20554 18.7106 0.738415 18.261C0.271292 17.8113 0.00615311 17.2029 0.000104904 16.5667C-0.00594139 15.9306 0.247589 15.3176 0.706087 14.8598L10.2032 5.70795L10.2049 5.70957Z" fill="#F1E7FE" fill-opacity="0.5"/>
</svg>
