<svg width="32" height="32" viewBox="0 0 32 32" fill="none" xmlns="http://www.w3.org/2000/svg">
<path fill-rule="evenodd" clip-rule="evenodd" d="M21.8182 11.6364C21.8182 13.1794 21.2053 14.6593 20.1141 15.7504C19.023 16.8416 17.5431 17.4545 16.0001 17.4545C14.457 17.4545 12.9771 16.8416 11.886 15.7504C10.7949 14.6593 10.1819 13.1794 10.1819 11.6364C10.1819 10.0933 10.7949 8.6134 11.886 7.52228C12.9771 6.43116 14.457 5.81818 16.0001 5.81818C17.5431 5.81818 19.023 6.43116 20.1141 7.52228C21.2053 8.6134 21.8182 10.0933 21.8182 11.6364ZM18.9092 11.6364C18.9092 12.4079 18.6027 13.1478 18.0571 13.6934C17.5115 14.239 16.7716 14.5454 16.0001 14.5454C15.2285 14.5454 14.4886 14.239 13.943 13.6934C13.3975 13.1478 13.091 12.4079 13.091 11.6364C13.091 10.8648 13.3975 10.1249 13.943 9.57932C14.4886 9.03376 15.2285 8.72727 16.0001 8.72727C16.7716 8.72727 17.5115 9.03376 18.0571 9.57932C18.6027 10.1249 18.9092 10.8648 18.9092 11.6364Z" fill="#F1E7FE" fill-opacity="0.5"/>
<path fill-rule="evenodd" clip-rule="evenodd" d="M16 0C7.16364 0 0 7.16364 0 16C0 24.8364 7.16364 32 16 32C24.8364 32 32 24.8364 32 16C32 7.16364 24.8364 0 16 0ZM2.90909 16C2.90909 19.04 3.94618 21.8385 5.68436 24.0611C6.90537 22.4584 8.48022 21.1595 10.286 20.2658C12.0918 19.3721 14.0797 18.9078 16.0945 18.9091C18.0835 18.9068 20.0466 19.3587 21.8344 20.2304C23.6221 21.102 25.1872 22.3705 26.4102 23.9389C27.6705 22.286 28.519 20.3567 28.8857 18.3107C29.2523 16.2647 29.1264 14.1608 28.5185 12.1731C27.9106 10.1854 26.8381 8.37098 25.3898 6.88005C23.9415 5.38913 22.1589 4.26452 20.1896 3.59929C18.2204 2.93405 16.121 2.7473 14.0653 3.05451C12.0095 3.36171 10.0564 4.15402 8.36766 5.3659C6.67891 6.57777 5.303 8.17436 4.35379 10.0236C3.40458 11.8728 2.90935 13.9214 2.90909 16ZM16 29.0909C12.9948 29.0958 10.0802 28.0619 7.74982 26.1644C8.68772 24.8213 9.93628 23.7247 11.3892 22.9679C12.8421 22.2112 14.4564 21.8168 16.0945 21.8182C17.7123 21.8168 19.307 22.2014 20.7462 22.9401C22.1854 23.6788 23.4275 24.7503 24.3695 26.0655C22.021 28.0247 19.0584 29.0957 16 29.0909Z" fill="#F1E7FE" fill-opacity="0.5"/>
</svg>
