<svg width="32" height="32" viewBox="0 0 32 32" fill="#fff" xmlns="http://www.w3.org/2000/svg">
<path d="M23.9829 15.6667C24.7293 15.6667 25.3333 15.0423 25.3333 14.2737V3.05975C25.3333 2.6903 25.191 2.33599 24.9377 2.07475C24.6845 1.81351 24.341 1.66675 23.9829 1.66675C23.6248 1.66675 23.2813 1.81351 23.028 2.07475C22.7748 2.33599 22.6325 2.6903 22.6325 3.05975V14.2737C22.6325 15.0437 23.2365 15.6667 23.9829 15.6667ZM15.8333 29.6667C16.5797 29.6667 17.1836 29.0423 17.1836 28.2737V3.05975C17.1836 2.6903 17.0413 2.33599 16.7881 2.07475C16.5349 1.81351 16.1914 1.66675 15.8333 1.66675C15.4751 1.66675 15.1316 1.81351 14.8784 2.07475C14.6252 2.33599 14.4829 2.6903 14.4829 3.05975V28.2737C14.4829 29.0437 15.0882 29.6667 15.8333 29.6667ZM9.03397 20.2737C9.03397 20.6432 8.8917 20.9975 8.63846 21.2587C8.38521 21.52 8.04175 21.6667 7.68361 21.6667C7.32547 21.6667 6.982 21.52 6.72876 21.2587C6.47552 20.9975 6.33325 20.6432 6.33325 20.2737V3.45975C6.33325 3.27682 6.36818 3.09568 6.43604 2.92667C6.5039 2.75766 6.60337 2.6041 6.72876 2.47475C6.85415 2.3454 7.00302 2.24279 7.16685 2.17278C7.33068 2.10278 7.50628 2.06675 7.68361 2.06675C7.86094 2.06675 8.03654 2.10278 8.20037 2.17278C8.3642 2.24279 8.51306 2.3454 8.63846 2.47475C8.76385 2.6041 8.86331 2.75766 8.93118 2.92667C8.99904 3.09568 9.03397 3.27682 9.03397 3.45975V20.2737Z" fill="#fff" />
</svg>
