<svg width="32" height="32" viewBox="0 0 32 32" fill="#fff" xmlns="http://www.w3.org/2000/svg">
<path d="M23.9829 29.6667C24.7293 29.6667 25.3333 29.0423 25.3333 28.2737V17.0597C25.3333 16.6903 25.191 16.336 24.9377 16.0747C24.6845 15.8135 24.341 15.6667 23.9829 15.6667C23.6248 15.6667 23.2813 15.8135 23.028 16.0747C22.7748 16.336 22.6325 16.6903 22.6325 17.0597V28.2737C22.6325 29.0437 23.2365 29.6667 23.9829 29.6667ZM15.8333 29.6667C16.5797 29.6667 17.1836 29.0423 17.1836 28.2737V3.05975C17.1836 2.6903 17.0413 2.33599 16.7881 2.07475C16.5349 1.81351 16.1914 1.66675 15.8333 1.66675C15.4751 1.66675 15.1316 1.81351 14.8784 2.07475C14.6252 2.33599 14.4829 2.6903 14.4829 3.05975V28.2737C14.4829 29.0437 15.0882 29.6667 15.8333 29.6667ZM9.03397 28.2737C9.03397 28.6432 8.8917 28.9975 8.63846 29.2587C8.38521 29.52 8.04175 29.6667 7.68361 29.6667C7.32547 29.6667 6.982 29.52 6.72876 29.2587C6.47552 28.9975 6.33325 28.6432 6.33325 28.2737V11.4597C6.33325 11.2768 6.36818 11.0957 6.43604 10.9267C6.5039 10.7577 6.60337 10.6041 6.72876 10.4747C6.85415 10.3454 7.00302 10.2428 7.16685 10.1728C7.33068 10.1028 7.50628 10.0667 7.68361 10.0667C7.86094 10.0667 8.03654 10.1028 8.20037 10.1728C8.3642 10.2428 8.51306 10.3454 8.63846 10.4747C8.76385 10.6041 8.86331 10.7577 8.93118 10.9267C8.99904 11.0957 9.03397 11.2768 9.03397 11.4597V28.2737Z" fill="#fff" />
</svg>
