<svg width="32" height="32" viewBox="0 0 32 32" fill="none" xmlns="http://www.w3.org/2000/svg">
<path d="M24.3164 9.33325C25.0628 9.33325 25.6667 9.95765 25.6667 10.7263V21.9403C25.6667 22.3097 25.5245 22.664 25.2712 22.9253C25.018 23.1865 24.6745 23.3333 24.3164 23.3333C23.9583 23.3333 23.6148 23.1865 23.3615 22.9253C23.1083 22.664 22.966 22.3097 22.966 21.9403V10.7263C22.966 9.95625 23.57 9.33325 24.3164 9.33325ZM16.1667 2.33325C16.9132 2.33325 17.5171 2.95765 17.5171 3.72625V28.9403C17.5171 29.3097 17.3748 29.664 17.1216 29.9253C16.8684 30.1865 16.5249 30.3333 16.1667 30.3333C15.8086 30.3333 15.4651 30.1865 15.2119 29.9253C14.9587 29.664 14.8164 29.3097 14.8164 28.9403V3.72625C14.8164 2.95625 15.4217 2.33325 16.1667 2.33325ZM9.36746 7.72625C9.36746 7.35681 9.22519 7.00249 8.97195 6.74125C8.71871 6.48001 8.37524 6.33325 8.0171 6.33325C7.65897 6.33325 7.3155 6.48001 7.06226 6.74125C6.80902 7.00249 6.66675 7.35681 6.66675 7.72625V24.5403C6.66675 24.7232 6.70168 24.9043 6.76954 25.0733C6.8374 25.2423 6.93687 25.3959 7.06226 25.5253C7.18765 25.6546 7.33651 25.7572 7.50035 25.8272C7.66418 25.8972 7.83977 25.9333 8.0171 25.9333C8.19444 25.9333 8.37003 25.8972 8.53386 25.8272C8.6977 25.7572 8.84656 25.6546 8.97195 25.5253C9.09734 25.3959 9.19681 25.2423 9.26467 25.0733C9.33253 24.9043 9.36746 24.7232 9.36746 24.5403V7.72625Z" fill="#F1E7FE" fill-opacity="0.5"/>
</svg>
