<svg width="24" height="25" viewBox="0 0 24 25" fill="none" xmlns="http://www.w3.org/2000/svg">
<path fill-rule="evenodd" clip-rule="evenodd" d="M4.76025 14.2406C4.27344 13.7532 4 13.0925 4 12.4036C4 11.7147 4.27344 11.054 4.76025 10.5666L14.5623 0.761025C15.05 0.273586 15.7113 -0.000162432 16.4008 7.23085e-08C17.0903 0.000162576 17.7515 0.274223 18.239 0.761891C18.7264 1.24956 19.0002 1.91089 19 2.60039C18.9998 3.2899 18.7258 3.9511 18.2381 4.43854L10.2731 12.4036L18.2381 20.3686C18.7119 20.8587 18.9742 21.5152 18.9686 22.1968C18.963 22.8784 18.6899 23.5306 18.2082 24.0128C17.7264 24.495 17.0745 24.7687 16.3929 24.7749C15.7113 24.7812 15.0546 24.5195 14.5641 24.0462L4.75852 14.2423L4.76025 14.2406Z" fill="#F1E7FE" fill-opacity="0.5"/>
</svg>
