<svg width="24" height="24" viewBox="0 0 24 24" fill="#fff" xmlns="http://www.w3.org/2000/svg">
<path fill-rule="evenodd" clip-rule="evenodd" d="M13.7951 19.2397C13.323 19.7266 12.6829 20 12.0156 20C11.3482 20 10.7082 19.7266 10.236 19.2397L0.737217 9.43767C0.265028 8.95 -0.00015735 8.28867 7.00465e-08 7.59917C0.00015749 6.90966 0.265644 6.24846 0.738056 5.76103C1.21047 5.27359 1.85111 4.99984 2.51904 5C3.18698 5.00016 3.82749 5.27422 4.29968 5.76189L12.0156 13.7269L19.7314 5.76189C20.2062 5.28812 20.8422 5.02579 21.5024 5.03139C22.1627 5.03699 22.7945 5.31007 23.2616 5.79183C23.7287 6.27358 23.9938 6.92546 23.9999 7.60706C24.0059 8.28865 23.7524 8.94543 23.2939 9.43594L13.7968 19.2415L13.7951 19.2397Z" fill="#fff" />
</svg>
