<svg width="24" height="24" viewBox="0 0 24 24" fill="#fff" xmlns="http://www.w3.org/2000/svg">
<path fill-rule="evenodd" clip-rule="evenodd" d="M18.2904 10.2049C18.7448 10.677 19 11.3171 19 11.9844C19 12.6518 18.7448 13.2918 18.2904 13.764L9.14183 23.2628C8.68667 23.735 8.06943 24.0002 7.42589 24C6.78235 23.9998 6.16523 23.7344 5.71029 23.2619C5.25535 22.7895 4.99985 22.1489 5 21.481C5.00015 20.813 5.25594 20.1725 5.7111 19.7003L13.1451 11.9844L5.7111 4.26855C5.26892 3.79383 5.02407 3.15783 5.0293 2.49755C5.03452 1.83727 5.2894 1.20554 5.73904 0.738415C6.18868 0.271292 6.79709 0.00615311 7.43325 0.000104904C8.06941 -0.00594139 8.6824 0.247589 9.14021 0.706087L18.2921 10.2032L18.2904 10.2049Z" fill="#fff" />
</svg>
