<svg width="16" height="16" viewBox="0 0 16 16" fill="none" xmlns="http://www.w3.org/2000/svg">
<path fill-rule="evenodd" clip-rule="evenodd" d="M14.7346 2.54544C14.8187 2.46147 14.8854 2.36178 14.9309 2.25204C14.9765 2.1423 14.9999 2.02466 15 1.90585C15.0001 1.78704 14.9767 1.66938 14.9313 1.55958C14.8859 1.44978 14.8194 1.35001 14.7354 1.26594C14.6514 1.18188 14.5518 1.11517 14.442 1.06964C14.3323 1.0241 14.2146 1.00063 14.0958 1.00056C13.977 1.00048 13.8594 1.02381 13.7496 1.06921C13.6398 1.11461 13.54 1.18119 13.4559 1.26515L7.99988 6.72129L2.54541 1.26515C2.37564 1.09538 2.14538 1 1.90528 1C1.66519 1 1.43492 1.09538 1.26515 1.26515C1.09538 1.43493 1 1.6652 1 1.9053C1 2.14539 1.09538 2.37566 1.26515 2.54544L6.7212 8L1.26515 13.4546C1.18109 13.5386 1.1144 13.6384 1.06891 13.7483C1.02342 13.8581 1 13.9758 1 14.0947C1 14.2136 1.02342 14.3313 1.06891 14.4411C1.1144 14.551 1.18109 14.6508 1.26515 14.7348C1.43492 14.9046 1.66519 15 1.90528 15C2.02416 15 2.14188 14.9766 2.25172 14.9311C2.36155 14.8856 2.46135 14.8189 2.54541 14.7348L7.99988 9.27871L13.4559 14.7348C13.6257 14.9044 13.8559 14.9996 14.0958 14.9994C14.3358 14.9993 14.5658 14.9038 14.7354 14.7341C14.905 14.5643 15.0001 14.3341 15 14.0941C14.9999 13.8542 14.9044 13.6241 14.7346 13.4546L9.27857 8L14.7346 2.54544Z" fill="#F1E7FE" fill-opacity="0.5"/>
</svg>
