<svg width="24" height="24" viewBox="0 0 24 24" fill="#fff" xmlns="http://www.w3.org/2000/svg">
<path d="M12.0002 5C11.8708 4.9999 11.7436 5.03328 11.631 5.09689C11.5183 5.1605 11.424 5.25217 11.3572 5.363L8.14524 10.7L3.40824 7.621C3.28709 7.5424 3.14583 7.50044 3.00142 7.50016C2.85701 7.49989 2.7156 7.54131 2.59416 7.61946C2.47271 7.6976 2.37642 7.80914 2.31683 7.94068C2.25724 8.07223 2.23689 8.21818 2.25824 8.361L3.75824 18.361C3.78483 18.5387 3.87438 18.701 4.01056 18.8183C4.14674 18.9356 4.32051 19.0001 4.50024 19H19.5002C19.68 19.0001 19.8537 18.9356 19.9899 18.8183C20.1261 18.701 20.2156 18.5387 20.2422 18.361L21.7422 8.361C21.7636 8.21818 21.7432 8.07223 21.6836 7.94068C21.6241 7.80914 21.5278 7.6976 21.4063 7.61946C21.2849 7.54131 21.1435 7.49989 20.999 7.50016C20.8546 7.50044 20.7134 7.5424 20.5922 7.621L15.8552 10.7L12.6432 5.364C12.5766 5.25298 12.4824 5.16111 12.3697 5.09732C12.257 5.03354 12.1297 5.00001 12.0002 5Z" fill="#7A7384"/>
</svg>
