<svg width="32" height="32" viewBox="0 0 32 32" fill="none" xmlns="http://www.w3.org/2000/svg">
<path d="M20.0338 10.75C19.6313 10.75 19.2958 10.6158 19.0275 10.3475C18.7592 10.0792 18.625 9.73675 18.625 9.32025V3.42975C18.625 3.01325 18.7615 2.67083 19.0345 2.4025C19.3075 2.13417 19.6458 2 20.0495 2H28.5895C28.9943 2 29.3303 2.13417 29.5975 2.4025C29.8647 2.67083 29.9988 3.01325 30 3.42975V9.32025C30 9.73792 29.8635 10.0803 29.5905 10.3475C29.3175 10.6158 28.9792 10.75 28.5755 10.75H20.0338ZM3.40875 16C3.00625 16 2.67083 15.8658 2.4025 15.5975C2.13417 15.3292 2 14.9967 2 14.6V3.4C2 3.00333 2.1365 2.67083 2.4095 2.4025C2.6825 2.13417 3.02083 2 3.4245 2H11.9645C12.3693 2 12.7053 2.13417 12.9725 2.4025C13.2397 2.67083 13.3738 3.00333 13.375 3.4V14.6C13.375 14.9967 13.2385 15.3292 12.9655 15.5975C12.6925 15.8658 12.3542 16 11.9505 16H3.40875ZM20.0338 30C19.6313 30 19.2958 29.8658 19.0275 29.5975C18.7592 29.3292 18.625 28.9967 18.625 28.6V17.4C18.625 17.0033 18.7615 16.6708 19.0345 16.4025C19.3075 16.1342 19.6458 16 20.0495 16H28.5895C28.9943 16 29.3303 16.1342 29.5975 16.4025C29.8647 16.6708 29.9988 17.0033 30 17.4V28.6C30 28.9967 29.8635 29.3292 29.5905 29.5975C29.3175 29.8658 28.9792 30 28.5755 30H20.0338ZM3.40875 30C3.00625 30 2.67083 29.8658 2.4025 29.5975C2.13417 29.3292 2 28.9868 2 28.5703V22.6798C2 22.2633 2.1365 21.9208 2.4095 21.6525C2.6825 21.3842 3.02083 21.25 3.4245 21.25H11.9645C12.3693 21.25 12.7053 21.3842 12.9725 21.6525C13.2397 21.9208 13.3738 22.2633 13.375 22.6798V28.5703C13.375 28.9879 13.2385 29.3303 12.9655 29.5975C12.6925 29.8658 12.3542 30 11.9505 30H3.40875Z" fill="#F1E7FE" fill-opacity="0.5"/>
</svg>
