<svg width="24" height="24" viewBox="0 0 24 24" fill="none" xmlns="http://www.w3.org/2000/svg">
<path d="M10.358 9.93799C11.44 9.81799 12.56 9.81799 13.642 9.93799C13.745 9.94938 13.8413 9.99496 13.9154 10.0675C13.9896 10.14 14.0373 10.2352 14.051 10.338C14.18 11.442 14.18 12.558 14.051 13.662C14.0372 13.7649 13.9894 13.8603 13.9151 13.9328C13.8407 14.0053 13.7442 14.0508 13.641 14.062C12.5499 14.1821 11.449 14.1821 10.358 14.062C10.2549 14.0506 10.1586 14.005 10.0845 13.9325C10.0103 13.86 9.96264 13.7648 9.94896 13.662C9.81975 12.5578 9.81975 11.4422 9.94896 10.338C9.96268 10.2351 10.0105 10.1397 10.0849 10.0672C10.1592 9.99465 10.2557 9.94917 10.359 9.93799" fill="#F1E7FE" />
<path fill-rule="evenodd" clip-rule="evenodd" d="M15 2.25C15.1989 2.25 15.3897 2.32902 15.5303 2.46967C15.671 2.61032 15.75 2.80109 15.75 3V5.927C16.3223 6.04044 16.8476 6.32212 17.2588 6.73598C17.67 7.14983 17.9483 7.67702 18.058 8.25H21C21.1989 8.25 21.3897 8.32902 21.5303 8.46967C21.671 8.61032 21.75 8.80109 21.75 9C21.75 9.19891 21.671 9.38968 21.5303 9.53033C21.3897 9.67098 21.1989 9.75 21 9.75H18.212C18.2487 10.25 18.273 10.75 18.285 11.25H20C20.1989 11.25 20.3897 11.329 20.5303 11.4697C20.671 11.6103 20.75 11.8011 20.75 12C20.75 12.1989 20.671 12.3897 20.5303 12.5303C20.3897 12.671 20.1989 12.75 20 12.75H18.285C18.273 13.25 18.2487 13.75 18.212 14.25H21C21.1989 14.25 21.3897 14.329 21.5303 14.4697C21.671 14.6103 21.75 14.8011 21.75 15C21.75 15.1989 21.671 15.3897 21.5303 15.5303C21.3897 15.671 21.1989 15.75 21 15.75H18.058C17.9483 16.323 17.67 16.8502 17.2588 17.264C16.8476 17.6779 16.3223 17.9596 15.75 18.073V21C15.75 21.1989 15.671 21.3897 15.5303 21.5303C15.3897 21.671 15.1989 21.75 15 21.75C14.8011 21.75 14.6103 21.671 14.4697 21.5303C14.329 21.3897 14.25 21.1989 14.25 21V18.226C13.7513 18.2613 13.2513 18.2847 12.75 18.296V20C12.75 20.1989 12.671 20.3897 12.5303 20.5303C12.3897 20.671 12.1989 20.75 12 20.75C11.8011 20.75 11.6103 20.671 11.4697 20.5303C11.329 20.3897 11.25 20.1989 11.25 20V18.296C10.7495 18.2844 10.2494 18.2611 9.75 18.226V21C9.75 21.1989 9.67098 21.3897 9.53033 21.5303C9.38968 21.671 9.19891 21.75 9 21.75C8.80109 21.75 8.61032 21.671 8.46967 21.5303C8.32902 21.3897 8.25 21.1989 8.25 21V18.073C7.67774 17.9596 7.15237 17.6779 6.74119 17.264C6.33 16.8502 6.05173 16.323 5.942 15.75H3C2.80109 15.75 2.61032 15.671 2.46967 15.5303C2.32902 15.3897 2.25 15.1989 2.25 15C2.25 14.8011 2.32902 14.6103 2.46967 14.4697C2.61032 14.329 2.80109 14.25 3 14.25H5.788C5.75133 13.75 5.72667 13.25 5.714 12.75H4C3.80109 12.75 3.61032 12.671 3.46967 12.5303C3.32902 12.3897 3.25 12.1989 3.25 12C3.25 11.8011 3.32902 11.6103 3.46967 11.4697C3.61032 11.329 3.80109 11.25 4 11.25H5.714C5.72667 10.75 5.75133 10.25 5.788 9.75H3C2.80109 9.75 2.61032 9.67098 2.46967 9.53033C2.32902 9.38968 2.25 9.19891 2.25 9C2.25 8.80109 2.32902 8.61032 2.46967 8.46967C2.61032 8.32902 2.80109 8.25 3 8.25H5.942C6.05173 7.67702 6.33 7.14983 6.74119 6.73598C7.15237 6.32212 7.67774 6.04044 8.25 5.927V3C8.25 2.80109 8.32902 2.61032 8.46967 2.46967C8.61032 2.32902 8.80109 2.25 9 2.25C9.19891 2.25 9.38968 2.32902 9.53033 2.46967C9.67098 2.61032 9.75 2.80109 9.75 3V5.774C10.2487 5.73867 10.7487 5.71533 11.25 5.704V4C11.25 3.80109 11.329 3.61032 11.4697 3.46967C11.6103 3.32902 11.8011 3.25 12 3.25C12.1989 3.25 12.3897 3.32902 12.5303 3.46967C12.671 3.61032 12.75 3.80109 12.75 4V5.704C13.2513 5.71533 13.7513 5.73867 14.25 5.774V3C14.25 2.80109 14.329 2.61032 14.4697 2.46967C14.6103 2.32902 14.8011 2.25 15 2.25ZM13.808 8.447C12.6064 8.31371 11.3936 8.31371 10.192 8.447C9.294 8.547 8.566 9.255 8.46 10.164C8.31728 11.3838 8.31728 12.6162 8.46 13.836C8.566 14.746 9.294 15.452 10.192 15.553C11.384 15.686 12.616 15.686 13.808 15.553C14.2482 15.5046 14.6591 15.3085 14.9736 14.9967C15.2881 14.6849 15.4877 14.2758 15.54 13.836C15.683 12.616 15.683 11.384 15.54 10.164C15.4877 9.72422 15.2881 9.3151 14.9736 9.0033C14.6591 8.69151 14.2482 8.49542 13.808 8.447Z" fill="#F1E7FE" />
</svg>
