<svg width="32" height="32" viewBox="0 0 32 32" fill="none" xmlns="http://www.w3.org/2000/svg">
<path d="M20.1003 6H19.0002C18.4697 6 17.961 6.21072 17.5859 6.58579C17.2108 6.96086 17.0001 7.46957 17.0001 8V12C17.0001 13.0609 16.5786 14.0783 15.8284 14.8284C15.0782 15.5786 14.0607 16 12.9998 16H11.8997C11.6519 17.214 10.962 18.2928 9.96397 19.0272C8.9659 19.7616 7.73068 20.0992 6.49778 19.9747C5.26489 19.8501 4.12216 19.2723 3.29114 18.3531C2.46011 17.434 2 16.2391 2 15C2 13.7609 2.46011 12.566 3.29114 11.6468C4.12216 10.7277 5.26489 10.1499 6.49778 10.0253C7.73068 9.90078 8.9659 10.2384 9.96397 10.9728C10.962 11.7072 11.6519 12.786 11.8997 14H12.9998C13.5303 14 14.039 13.7893 14.4141 13.4142C14.7892 13.0391 14.9999 12.5304 14.9999 12V8C14.9999 6.93914 15.4214 5.92172 16.1716 5.17158C16.9218 4.42143 17.9393 4.00001 19.0002 4.00001H20.1003C20.3481 2.78597 21.038 1.70719 22.036 0.972813C23.0341 0.23844 24.2693 -0.0992077 25.5022 0.0253305C26.7351 0.149869 27.8778 0.727721 28.7089 1.64686C29.5399 2.56599 30 3.76093 30 5.00001C30 6.23908 29.5399 7.43402 28.7089 8.35316C27.8778 9.27229 26.7351 9.85014 25.5022 9.97468C24.2693 10.0992 23.0341 9.76157 22.036 9.0272C21.038 8.29283 20.3481 7.21405 20.1003 6Z" fill="#F1E7FE" />
<path d="M20.1003 18H19.0002C18.4697 18 17.961 18.2107 17.5859 18.5858C17.2108 18.9609 17.0001 19.4696 17.0001 20V24C17.0001 25.0609 16.5786 26.0783 15.8284 26.8284C15.0782 27.5786 14.0607 28 12.9998 28H11.8997C11.6519 29.214 10.962 30.2928 9.96397 31.0272C8.9659 31.7616 7.73068 32.0992 6.49778 31.9747C5.26489 31.8501 4.12216 31.2723 3.29114 30.3531C2.46011 29.434 2 28.2391 2 27C2 25.7609 2.46011 24.566 3.29114 23.6468C4.12216 22.7277 5.26489 22.1499 6.49778 22.0253C7.73068 21.9008 8.9659 22.2384 9.96397 22.9728C10.962 23.7072 11.6519 24.786 11.8997 26H12.9998C13.5303 26 14.039 25.7893 14.4141 25.4142C14.7892 25.0391 14.9999 24.5304 14.9999 24V20C14.9999 18.9391 15.4214 17.9217 16.1716 17.1716C16.9218 16.4214 17.9393 16 19.0002 16H20.1003C20.3481 14.786 21.038 13.7072 22.036 12.9728C23.0341 12.2384 24.2693 11.9008 25.5022 12.0253C26.7351 12.1499 27.8778 12.7277 28.7089 13.6469C29.5399 14.566 30 15.7609 30 17C30 18.2391 29.5399 19.434 28.7089 20.3532C27.8778 21.2723 26.7351 21.8501 25.5022 21.9747C24.2693 22.0992 23.0341 21.7616 22.036 21.0272C21.038 20.2928 20.3481 19.214 20.1003 18Z" fill="#F1E7FE" />
</svg>
