<svg width="32" height="32" viewBox="0 0 32 32" fill="none" xmlns="http://www.w3.org/2000/svg">
<path d="M20.1 8.00001H19C18.4695 8.00001 17.9608 8.21073 17.5857 8.5858C17.2107 8.96087 17 9.46958 17 10V22C17 23.0609 16.5785 24.0783 15.8284 24.8284C15.0782 25.5786 14.0608 26 13 26H11.9C11.6521 27.2141 10.9624 28.2928 9.96437 29.0272C8.96637 29.7616 7.73123 30.0992 6.49843 29.9747C5.26563 29.8502 4.12298 29.2723 3.29202 28.3532C2.46106 27.434 2.00098 26.2391 2.00098 25C2.00098 23.7609 2.46106 22.566 3.29202 21.6469C4.12298 20.7277 5.26563 20.1499 6.49843 20.0253C7.73123 19.9008 8.96637 20.2384 9.96437 20.9728C10.9624 21.7072 11.6521 22.786 11.9 24H13C13.5304 24 14.0391 23.7893 14.4142 23.4142C14.7892 23.0392 15 22.5304 15 22V10C15 8.93915 15.4214 7.92173 16.1715 7.17158C16.9217 6.42144 17.9391 6.00001 19 6.00001H20.1C20.3478 4.78597 21.0375 3.70719 22.0355 2.97281C23.0335 2.23844 24.2687 1.90079 25.5015 2.02533C26.7343 2.14987 27.8769 2.72772 28.7079 3.64686C29.5389 4.56599 29.9989 5.76093 29.9989 7.00001C29.9989 8.23909 29.5389 9.43403 28.7079 10.3532C27.8769 11.2723 26.7343 11.8502 25.5015 11.9747C24.2687 12.0992 23.0335 11.7616 22.0355 11.0272C21.0375 10.2928 20.3478 9.21405 20.1 8.00001Z" fill="#F1E7FE" />
</svg>
