<svg width="64" height="64" viewBox="0 0 64 64" fill="none" xmlns="http://www.w3.org/2000/svg">
<path d="M21.504 3C24.3201 3 26.6028 3.42587 28.3521 4.27744C30.1013 5.08654 31.7013 6.04463 33.1521 7.15169C33.7068 7.57756 34.1334 7.79042 34.4321 7.79042C35.2428 7.79042 35.7761 6.49173 36.0321 3.89421H37.5041C37.4188 5.51225 37.3548 7.47105 37.3121 9.77045C37.2694 12.0272 37.2481 15.0506 37.2481 18.8403H35.7761C35.4774 16.7964 35.0721 14.9015 34.5601 13.1557C34.0908 11.4099 33.2588 9.91943 32.0641 8.68463C30.9121 7.32207 29.3973 6.25748 27.5201 5.49102C25.6853 4.72455 23.8081 4.34132 21.888 4.34132C19.6693 4.34132 17.7068 4.89493 16 6.00199C14.2933 7.06658 12.8427 8.59951 11.648 10.6008C10.496 12.6021 9.60002 14.9653 8.96002 17.6906C8.36269 20.3732 8.06402 23.3326 8.06402 26.5688C8.06402 34.2335 9.23735 39.8543 11.584 43.4311C13.9733 46.9653 17.5573 48.7325 22.336 48.7325C23.7013 48.7325 24.8748 48.5409 25.8561 48.1576C26.8801 47.7744 27.6908 47.3912 28.2881 47.0079C29.0133 46.497 29.4828 46.0072 29.6961 45.5389C29.9093 45.0279 30.0161 44.3679 30.0161 43.5588V37.3632C30.0161 35.5322 29.8453 34.1909 29.5041 33.3393C29.2053 32.4451 28.5868 31.849 27.6481 31.5509C26.7093 31.2103 25.3441 31.0187 23.552 30.976V29.6986C24.3628 29.7412 25.3228 29.7837 26.4321 29.8263C27.5413 29.8263 28.6933 29.8476 29.8881 29.8902C31.1253 29.8902 32.2348 29.8902 33.2161 29.8902C34.7521 29.8902 36.1388 29.869 37.3761 29.8263C38.6561 29.7837 39.7014 29.7412 40.5121 29.6986V30.976C39.6161 31.0187 38.9334 31.1676 38.4641 31.4231C38.0374 31.6786 37.7388 32.1896 37.5681 32.9561C37.4401 33.7225 37.3761 34.8935 37.3761 36.469V49.1157H36.0961C36.0534 48.3919 35.8828 47.604 35.5841 46.7524C35.3281 45.9009 34.9228 45.475 34.3681 45.475C34.0694 45.475 33.7493 45.5389 33.4081 45.6666C33.1093 45.7944 32.5761 46.1137 31.8081 46.6247C30.3148 47.6467 28.7573 48.477 27.1361 49.1157C25.5148 49.7118 23.6801 50.0099 21.632 50.0099C17.0668 50.0099 13.1627 49.1157 9.92002 47.3273C6.67734 45.4962 4.20268 42.8775 2.49601 39.471C0.832002 36.0219 0 31.9341 0 27.2076C0 22.2682 0.91733 17.9887 2.75201 14.3692C4.62934 10.7498 7.16801 7.96079 10.368 6.00199C13.6107 4.00072 17.3228 3 21.504 3Z" fill="white"/>
<path d="M64 16.6686C63.8293 18.3719 63.7012 20.0326 63.616 21.6506C63.5732 23.2686 63.552 24.5036 63.552 25.3552C63.552 26.3345 63.5732 27.2714 63.616 28.1656C63.6587 29.0598 63.7013 29.8262 63.744 30.465H62.272C61.888 27.3565 61.3547 24.9293 60.672 23.1835C60.032 21.3951 59.0507 20.1177 57.728 19.3512C56.4052 18.5421 54.5067 18.1376 52.0319 18.1376H48.6399C47.2747 18.1376 46.2292 18.2654 45.5039 18.5209C44.8212 18.7337 44.3519 19.2022 44.0959 19.9261C43.8399 20.6074 43.7119 21.6932 43.7119 23.1835V54.9919C43.7119 56.5675 43.8826 57.7596 44.2239 58.5687C44.5652 59.3352 45.2052 59.8462 46.1439 60.1017C47.0827 60.3572 48.4692 60.5061 50.3039 60.5488V61.8901C49.1519 61.805 47.6587 61.7623 45.8239 61.7623C43.9892 61.7197 42.0906 61.6985 40.1279 61.6985C38.4212 61.6985 36.7786 61.7197 35.1999 61.7623C33.6639 61.7623 32.3626 61.805 31.2959 61.8901V60.6126C32.7466 60.5275 33.8346 60.3572 34.5599 60.1017C35.2852 59.8462 35.7546 59.3352 35.9679 58.5687C36.2239 57.8023 36.3519 56.6526 36.3519 55.1196V23.439C36.3519 21.8635 36.2239 20.7138 35.9679 19.9899C35.7546 19.2235 35.2639 18.7125 34.4959 18.457C33.7706 18.1589 32.7039 17.9887 31.2959 17.946V16.6686C32.9599 16.7112 34.6879 16.7537 36.4799 16.7963C38.3146 16.7963 40.1066 16.8176 41.8559 16.8602C43.6479 16.8602 45.3119 16.8602 46.8479 16.8602C48.3839 16.8602 49.6427 16.8602 50.6239 16.8602C52.5867 16.8602 54.8052 16.8602 57.28 16.8602C59.7972 16.8176 62.0372 16.7537 64 16.6686ZM54.208 39.0238C54.208 39.0238 54.208 39.2367 54.208 39.6626C54.208 40.0884 54.208 40.3013 54.208 40.3013H41.7919C41.7919 40.3013 41.7919 40.0884 41.7919 39.6626C41.7919 39.2367 41.7919 39.0238 41.7919 39.0238H54.208ZM55.552 30.5927C55.3812 33.0199 55.296 34.8722 55.296 36.1496C55.3387 37.427 55.3599 38.598 55.3599 39.6626C55.3599 40.7272 55.3812 41.8981 55.424 43.1755C55.4667 44.453 55.5732 46.3053 55.744 48.7324H54.2719C54.1012 47.3272 53.8452 45.9859 53.5039 44.7085C53.1627 43.3884 52.5439 42.324 51.6479 41.5149C50.7519 40.7058 49.4079 40.3013 47.6159 40.3013V39.0238C48.9812 39.0238 50.0479 38.7471 50.8159 38.1935C51.6267 37.6399 52.2452 36.9161 52.6719 36.0218C53.0987 35.1276 53.3972 34.2122 53.5679 33.2753C53.7812 32.296 53.9519 31.4018 54.0799 30.5927H55.552Z" fill="white"/>
</svg>
