<svg width="32" height="32" viewBox="0 0 32 32" fill="none" xmlns="http://www.w3.org/2000/svg">
<rect width="32" height="28" transform="translate(0 2)" fill="#0F0B14"/>
<path d="M21 7.5C21.5523 7.5 22 7.05228 22 6.5C22 5.94772 21.5523 5.5 21 5.5C20.4477 5.5 20 5.94772 20 6.5C20 7.05228 20.4477 7.5 21 7.5Z" fill="#9850F6"/>
<path d="M24 7.5C24.5523 7.5 25 7.05228 25 6.5C25 5.94772 24.5523 5.5 24 5.5C23.4477 5.5 23 5.94772 23 6.5C23 7.05228 23.4477 7.5 24 7.5Z" fill="#9850F6"/>
<path d="M27 7.5C27.5523 7.5 28 7.05228 28 6.5C28 5.94772 27.5523 5.5 27 5.5C26.4477 5.5 26 5.94772 26 6.5C26 7.05228 26.4477 7.5 27 7.5Z" fill="#9850F6"/>
<path d="M29.7143 2H2.28571C1.67951 2 1.09812 2.24583 0.66947 2.68342C0.240816 3.121 0 3.71449 0 4.33333V27.6667C0 28.2855 0.240816 28.879 0.66947 29.3166C1.09812 29.7542 1.67951 30 2.28571 30H29.7143C30.3205 30 30.9019 29.7542 31.3305 29.3166C31.7592 28.879 32 28.2855 32 27.6667V4.33333C32 3.71449 31.7592 3.121 31.3305 2.68342C30.9019 2.24583 30.3205 2 29.7143 2ZM29.7143 4.33333V9H2.28571V4.33333H29.7143ZM2.28571 11.3333H9.14286V27.6667H2.28571V11.3333ZM11.4286 27.6667V11.3333H29.7143V27.6667H11.4286Z" fill="#9850F6"/>
</svg>
