<svg width="32" height="32" viewBox="0 0 32 32" fill="none" xmlns="http://www.w3.org/2000/svg">
<path d="M26.8889 6.94118V5.29412C26.8889 4.42046 26.5611 3.58259 25.9777 2.96482C25.3942 2.34706 24.6029 2 23.7778 2H20.6667C19.8415 2 19.0502 2.34706 18.4668 2.96482C17.8833 3.58259 17.5556 4.42046 17.5556 5.29412V6.94118H14.4444V5.29412C14.4444 4.42046 14.1167 3.58259 13.5332 2.96482C12.9498 2.34706 12.1585 2 11.3333 2H8.22222C7.3971 2 6.60578 2.34706 6.02233 2.96482C5.43889 3.58259 5.11111 4.42046 5.11111 5.29412V6.94118H2V30H30V6.94118H26.8889Z" fill="#F1E7FE" fill-opacity="0.5"/>
</svg>
