<svg width="48" height="48" viewBox="0 0 48 48" fill="none" xmlns="http://www.w3.org/2000/svg">
<path d="M21 40C21 40.7957 21.3161 41.5587 21.8787 42.1213C22.4413 42.6839 23.2044 43 24 43C24.7956 43 25.5587 42.6839 26.1213 42.1213C26.6839 41.5587 27 40.7957 27 40V27H40C40.7957 27 41.5587 26.6839 42.1213 26.1213C42.6839 25.5587 43 24.7956 43 24C43 23.2044 42.6839 22.4413 42.1213 21.8787C41.5587 21.3161 40.7957 21 40 21H27V8C27 7.20435 26.6839 6.44129 26.1213 5.87868C25.5587 5.31607 24.7956 5 24 5C23.2044 5 22.4413 5.31607 21.8787 5.87868C21.3161 6.44129 21 7.20435 21 8V21H8C7.20435 21 6.44129 21.3161 5.87868 21.8787C5.31607 22.4413 5 23.2044 5 24C5 24.7956 5.31607 25.5587 5.87868 26.1213C6.44129 26.6839 7.20435 27 8 27H21V40Z" fill="#9747FF"/>
</svg>
