<svg width="32" height="32" viewBox="0 0 32 32" fill="none" xmlns="http://www.w3.org/2000/svg">
<path fill-rule="evenodd" clip-rule="evenodd" d="M18.7776 2.7588C18.8994 2.9954 18.9302 3.2992 18.9904 3.9068C19.1052 5.0548 19.1626 5.6288 19.4034 5.9452C19.5534 6.14165 19.7528 6.29488 19.9812 6.3893C20.2097 6.48373 20.459 6.51599 20.704 6.4828C21.096 6.431 21.544 6.0656 22.4372 5.3348C22.909 4.947 23.1456 4.7538 23.399 4.6726C23.7217 4.56947 24.0709 4.58688 24.3818 4.7216C24.6268 4.828 24.8438 5.0436 25.2736 5.4748L26.5252 6.7264C26.9564 7.1576 27.172 7.3732 27.2784 7.6182C27.4131 7.92908 27.4305 8.27826 27.3274 8.601C27.2462 8.8544 27.053 9.091 26.6666 9.5628C25.9344 10.4574 25.569 10.904 25.5158 11.2974C25.483 11.5423 25.5156 11.7914 25.6103 12.0196C25.705 12.2478 25.8583 12.4469 26.0548 12.5966C26.3698 12.8374 26.9452 12.8948 28.0946 13.0096C28.7008 13.0698 29.0046 13.1006 29.2426 13.2224C29.5428 13.3781 29.7766 13.6372 29.9006 13.9518C30 14.1996 30 14.5048 30 15.1152V16.8848C30 17.4952 30 17.8004 29.902 18.0468C29.7776 18.3624 29.5427 18.6221 29.2412 18.7776C29.0046 18.8994 28.7008 18.9302 28.0932 18.9904C26.9452 19.1052 26.3712 19.1626 26.0548 19.4034C25.8583 19.5534 25.7051 19.7528 25.6107 19.9812C25.5163 20.2097 25.484 20.459 25.5172 20.704C25.5704 21.096 25.9358 21.544 26.6666 22.4372C27.053 22.909 27.2462 23.1442 27.3274 23.399C27.4305 23.7217 27.4131 24.0709 27.2784 24.3818C27.172 24.6268 26.9564 24.8424 26.5252 25.2736L25.2736 26.5238C24.8424 26.9564 24.6268 27.172 24.3818 27.277C24.0709 27.4117 23.7217 27.4291 23.399 27.326C23.1456 27.2448 22.909 27.0516 22.4372 26.6652C21.5426 25.9344 21.096 25.569 20.704 25.5172C20.459 25.484 20.2097 25.5163 19.9812 25.6107C19.7528 25.7051 19.5534 25.8583 19.4034 26.0548C19.1626 26.3698 19.1052 26.9438 18.9904 28.0932C18.9302 28.7008 18.8994 29.0046 18.7776 29.2412C18.6225 29.5425 18.3633 29.7773 18.0482 29.902C17.8004 30 17.4952 30 16.8848 30H15.1152C14.5048 30 14.1996 30 13.9532 29.902C13.6376 29.7776 13.3779 29.5427 13.2224 29.2412C13.1006 29.0046 13.0698 28.7008 13.0096 28.0932C12.8948 26.9452 12.8374 26.3712 12.5966 26.0548C12.4467 25.8586 12.2476 25.7055 12.0194 25.6111C11.7912 25.5167 11.5421 25.4843 11.2974 25.5172C10.904 25.569 10.4574 25.9344 9.5628 26.6652C9.091 27.053 8.8544 27.2462 8.601 27.3274C8.27826 27.4305 7.92908 27.4131 7.6182 27.2784C7.3732 27.172 7.1562 26.9564 6.7264 26.5252L5.4748 25.2736C5.0436 24.8424 4.828 24.6268 4.7216 24.3818C4.58688 24.0709 4.56947 23.7217 4.6726 23.399C4.7538 23.1456 4.947 22.909 5.3334 22.4372C6.0656 21.5426 6.431 21.096 6.4828 20.7026C6.51573 20.4579 6.48334 20.2088 6.38893 19.9806C6.29451 19.7524 6.14143 19.5533 5.9452 19.4034C5.6302 19.1626 5.0548 19.1052 3.9054 18.9904C3.2992 18.9302 2.9954 18.8994 2.7574 18.7776C2.45717 18.6219 2.22343 18.3628 2.0994 18.0482C2 17.8004 2 17.4952 2 16.8848V15.1152C2 14.5048 2 14.1996 2.098 13.9532C2.22244 13.6376 2.45726 13.3779 2.7588 13.2224C2.9954 13.1006 3.2992 13.0698 3.9068 13.0096C5.0548 12.8948 5.6302 12.8374 5.9452 12.5966C6.14168 12.4469 6.29504 12.2478 6.3897 12.0196C6.48437 11.7914 6.51697 11.5423 6.4842 11.2974C6.431 10.904 6.0642 10.4574 5.3334 9.5614C4.947 9.0896 4.7538 8.8544 4.6726 8.5996C4.56947 8.27686 4.58688 7.92768 4.7216 7.6168C4.828 7.3732 5.0436 7.1562 5.4748 6.725L6.7264 5.4748C7.1576 5.0436 7.3732 4.8266 7.6182 4.7216C7.92908 4.58688 8.27826 4.56947 8.601 4.6726C8.8544 4.7538 9.091 4.947 9.5628 5.3334C10.4574 6.0642 10.904 6.4296 11.296 6.4828C11.5413 6.51609 11.791 6.48374 12.0198 6.38905C12.2485 6.29437 12.448 6.14073 12.598 5.9438C12.836 5.6288 12.8948 5.0548 13.0096 3.9054C13.0698 3.2992 13.1006 2.9954 13.2224 2.7574C13.3778 2.45664 13.6369 2.22238 13.9518 2.098C14.1996 2 14.5048 2 15.1152 2H16.8848C17.4952 2 17.8004 2 18.0468 2.098C18.3624 2.22244 18.6221 2.45726 18.7776 2.7588ZM16 21.6C17.4852 21.6 18.9096 21.01 19.9598 19.9598C21.01 18.9096 21.6 17.4852 21.6 16C21.6 14.5148 21.01 13.0904 19.9598 12.0402C18.9096 10.99 17.4852 10.4 16 10.4C14.5148 10.4 13.0904 10.99 12.0402 12.0402C10.99 13.0904 10.4 14.5148 10.4 16C10.4 17.4852 10.99 18.9096 12.0402 19.9598C13.0904 21.01 14.5148 21.6 16 21.6Z" fill="#F1E7FE" />
</svg>
