<svg width="48" height="48" viewBox="0 0 48 48" fill="none" xmlns="http://www.w3.org/2000/svg">
<path d="M11.5 0C10.0413 0 8.64236 0.579463 7.61091 1.61091C6.57946 2.64236 6 4.04131 6 5.5V7.5C6 7.89782 6.15804 8.27936 6.43934 8.56066C6.72064 8.84196 7.10218 9 7.5 9C7.89783 9 8.27936 8.84196 8.56066 8.56066C8.84197 8.27936 9 7.89782 9 7.5V5.5C9 4.12 10.12 3 11.5 3H13.5C13.8978 3 14.2794 2.84196 14.5607 2.56066C14.842 2.27936 15 1.89782 15 1.5C15 1.10218 14.842 0.720644 14.5607 0.43934C14.2794 0.158035 13.8978 0 13.5 0L11.5 0ZM19.5 0C19.1022 0 18.7206 0.158035 18.4393 0.43934C18.158 0.720644 18 1.10218 18 1.5C18 1.89782 18.158 2.27936 18.4393 2.56066C18.7206 2.84196 19.1022 3 19.5 3H28.5C28.8978 3 29.2794 2.84196 29.5607 2.56066C29.842 2.27936 30 1.89782 30 1.5C30 1.10218 29.842 0.720644 29.5607 0.43934C29.2794 0.158035 28.8978 0 28.5 0L19.5 0ZM34.5 0C34.1022 0 33.7206 0.158035 33.4393 0.43934C33.158 0.720644 33 1.10218 33 1.5C33 1.89782 33.158 2.27936 33.4393 2.56066C33.7206 2.84196 34.1022 3 34.5 3H39V7.5C39 7.89782 39.158 8.27936 39.4393 8.56066C39.7206 8.84196 40.1022 9 40.5 9C40.8978 9 41.2794 8.84196 41.5607 8.56066C41.842 8.27936 42 7.89782 42 7.5V1.5C42 1.10218 41.842 0.720644 41.5607 0.43934C41.2794 0.158035 40.8978 0 40.5 0L34.5 0ZM9 13C9 12.6022 8.84197 12.2206 8.56066 11.9393C8.27936 11.658 7.89783 11.5 7.5 11.5C7.10218 11.5 6.72064 11.658 6.43934 11.9393C6.15804 12.2206 6 12.6022 6 13V20.5C6 20.8978 6.15804 21.2794 6.43934 21.5607C6.72064 21.842 7.10218 22 7.5 22C7.89783 22 8.27936 21.842 8.56066 21.5607C8.84197 21.2794 9 20.8978 9 20.5V13ZM42 13C42 12.6022 41.842 12.2206 41.5607 11.9393C41.2794 11.658 40.8978 11.5 40.5 11.5C40.1022 11.5 39.7206 11.658 39.4393 11.9393C39.158 12.2206 39 12.6022 39 13V20.5C39 20.8978 39.158 21.2794 39.4393 21.5607C39.7206 21.842 40.1022 22 40.5 22C40.8978 22 41.2794 21.842 41.5607 21.5607C41.842 21.2794 42 20.8978 42 20.5V13ZM9 26.5C9 26.1022 8.84197 25.7206 8.56066 25.4393C8.27936 25.158 7.89783 25 7.5 25C7.10218 25 6.72064 25.158 6.43934 25.4393C6.15804 25.7206 6 26.1022 6 26.5V37.5C5.99948 38.7652 6.36822 40.0031 7.06098 41.0617C7.75375 42.1204 8.74042 42.9539 9.9 43.46C10.0806 43.5388 10.2749 43.5812 10.4719 43.5849C10.6688 43.5886 10.8646 43.5535 11.048 43.4815C11.2314 43.4096 11.3988 43.3022 11.5407 43.1655C11.6826 43.0288 11.7962 42.8656 11.875 42.685C11.9538 42.5044 11.9963 42.3101 11.9999 42.1131C12.0036 41.9162 11.9685 41.7204 11.8965 41.537C11.8246 41.3536 11.7172 41.1862 11.5805 41.0443C11.4438 40.9024 11.2806 40.7888 11.1 40.71C10.4755 40.4374 9.94412 39.9885 9.57109 39.4183C9.19805 38.8481 8.99957 38.1814 9 37.5V36C9 35.2043 9.31607 34.4413 9.87868 33.8787C10.4413 33.3161 11.2044 33 12 33H13.5C13.8978 33 14.2794 32.842 14.5607 32.5607C14.842 32.2794 15 31.8978 15 31.5C15 31.1022 14.842 30.7206 14.5607 30.4393C14.2794 30.158 13.8978 30 13.5 30H12C10.908 30 9.882 30.292 9 30.802V26.5ZM42 26.5C42 26.1022 41.842 25.7206 41.5607 25.4393C41.2794 25.158 40.8978 25 40.5 25C40.1022 25 39.7206 25.158 39.4393 25.4393C39.158 25.7206 39 26.1022 39 26.5V30H34.5C34.1022 30 33.7206 30.158 33.4393 30.4393C33.158 30.7206 33 31.1022 33 31.5C33 31.8978 33.158 32.2794 33.4393 32.5607C33.7206 32.842 34.1022 33 34.5 33H39V41H28.5C28.1022 41 27.7206 41.158 27.4393 41.4393C27.158 41.7206 27 42.1022 27 42.5C27 42.8978 27.158 43.2794 27.4393 43.5607C27.7206 43.842 28.1022 44 28.5 44H40.5C40.8978 44 41.2794 43.842 41.5607 43.5607C41.842 43.2794 42 42.8978 42 42.5V26.5ZM19.5 30C19.1022 30 18.7206 30.158 18.4393 30.4393C18.158 30.7206 18 31.1022 18 31.5C18 31.8978 18.158 32.2794 18.4393 32.5607C18.7206 32.842 19.1022 33 19.5 33H28.5C28.8978 33 29.2794 32.842 29.5607 32.5607C29.842 32.2794 30 31.8978 30 31.5C30 31.1022 29.842 30.7206 29.5607 30.4393C29.2794 30.158 28.8978 30 28.5 30H19.5ZM14.794 46.922C14.7196 46.9761 14.6317 47.0086 14.5399 47.016C14.4482 47.0233 14.3562 47.0052 14.2741 46.9637C14.192 46.9221 14.123 46.8587 14.0746 46.7804C14.0263 46.7021 14.0004 46.612 14 46.52V36.5C14 36.3674 14.0527 36.2402 14.1464 36.1464C14.2402 36.0527 14.3674 36 14.5 36H24.5C24.6326 36 24.7598 36.0527 24.8536 36.1464C24.9473 36.2402 25 36.3674 25 36.5V46.52C24.9996 46.612 24.9737 46.7021 24.9254 46.7804C24.877 46.8587 24.808 46.9221 24.7259 46.9637C24.6438 47.0052 24.5518 47.0233 24.4601 47.016C24.3683 47.0086 24.2804 46.9761 24.206 46.922L19.794 43.714C19.7086 43.6519 19.6056 43.6184 19.5 43.6184C19.3944 43.6184 19.2914 43.6519 19.206 43.714L14.794 46.922Z" fill="#9747FF"/>
</svg>
