<svg width="246" height="128" viewBox="0 0 246 128" fill="none" xmlns="http://www.w3.org/2000/svg">
<path d="M32.4635 29.6288C36.1641 29.6288 39.1638 30.1885 41.4625 31.3075C43.7612 32.3708 45.8638 33.6298 47.7702 35.0846C48.4992 35.6442 49.0597 35.9239 49.4523 35.9239C50.5176 35.9239 51.2184 34.2173 51.5548 30.8039H53.4892C53.3771 32.9302 53.293 35.5043 53.2369 38.5259C53.1807 41.4915 53.1528 45.4645 53.1528 50.4446H51.2184C50.8259 47.7587 50.2933 45.2686 49.6205 42.9744C49.0038 40.6803 47.9104 38.7217 46.3405 37.099C44.8266 35.3085 42.8361 33.9095 40.3692 32.9023C37.9582 31.8951 35.4912 31.3915 32.9682 31.3915C30.0525 31.3915 27.4735 32.119 25.2307 33.5738C22.9879 34.9727 21.0817 36.9872 19.5117 39.617C17.9979 42.2469 16.8205 45.3525 15.9794 48.9338C15.1945 52.459 14.802 56.3479 14.802 60.6006C14.802 70.6728 16.3439 78.059 19.4276 82.7593C22.5674 87.4036 27.2771 89.7259 33.5569 89.7259C35.351 89.7259 36.893 89.4741 38.1825 88.9705C39.5282 88.4669 40.5935 87.9633 41.3784 87.4597C42.3315 86.7882 42.9484 86.1446 43.2287 85.5292C43.5089 84.8577 43.6492 83.9904 43.6492 82.9272V74.7856C43.6492 72.3794 43.4248 70.6168 42.9764 69.4977C42.5838 68.3226 41.771 67.5393 40.5374 67.1475C39.3038 66.7 37.5097 66.4481 35.1548 66.3921V64.7134C36.2202 64.7695 37.4817 64.8253 38.9394 64.8813C40.3971 64.8813 41.911 64.9092 43.481 64.9652C45.1069 64.9652 46.5648 64.9652 47.8543 64.9652C49.8728 64.9652 51.6951 64.9373 53.321 64.8813C55.003 64.8253 56.3766 64.7695 57.442 64.7134V66.3921C56.2646 66.4481 55.3674 66.6439 54.7507 66.9797C54.19 67.3154 53.7976 67.9869 53.5733 68.9941C53.4051 70.0013 53.321 71.54 53.321 73.6105V90.2295H51.6389C51.5828 89.2783 51.3587 88.243 50.9661 87.1239C50.6297 86.0049 50.0971 85.4452 49.3682 85.4452C48.9756 85.4452 48.5551 85.5292 48.1066 85.697C47.7141 85.8649 47.0133 86.2846 46.0041 86.9561C44.0417 88.299 41.9951 89.3902 39.8646 90.2295C37.734 91.0128 35.323 91.4046 32.6317 91.4046C26.6325 91.4046 21.5022 90.2295 17.241 87.8793C12.9798 85.4731 9.72782 82.0318 7.48508 77.5554C5.29841 73.0229 4.20508 67.6511 4.20508 61.44C4.20508 54.9491 5.41054 49.3255 7.82149 44.5692C10.2885 39.8128 13.6246 36.1478 17.8297 33.5738C22.091 30.9439 26.9689 29.6288 32.4635 29.6288Z" fill="#F1E7FE"/>
<path d="M88.3075 47.5908C88.0831 49.8291 87.9149 52.0114 87.8029 54.1377C87.7467 56.264 87.7188 57.8868 87.7188 59.0059C87.7188 60.2928 87.7467 61.5239 87.8029 62.699C87.859 63.8741 87.9149 64.8813 87.9711 65.7207H86.0367C85.5321 61.6358 84.8313 58.4463 83.9341 56.1521C83.0931 53.802 81.8036 52.1233 80.0654 51.1161C78.3272 50.0528 75.8323 49.5213 72.5803 49.5213H68.1229C66.3287 49.5213 64.9549 49.6892 64.0018 50.0249C63.1047 50.3046 62.488 50.9203 62.1516 51.8715C61.8152 52.7668 61.647 54.1937 61.647 56.1521V97.9515C61.647 100.022 61.8713 101.589 62.3198 102.652C62.7683 103.659 63.6093 104.33 64.8429 104.666C66.0764 105.002 67.8985 105.198 70.3095 105.254V107.016C68.7957 106.905 66.8333 106.849 64.4223 106.849C62.0113 106.792 59.5164 106.765 56.9372 106.765C54.6944 106.765 52.5359 106.792 50.4613 106.849C48.4429 106.849 46.7328 106.905 45.3311 107.016V105.338C47.2374 105.226 48.6672 105.002 49.6203 104.666C50.5734 104.33 51.1903 103.659 51.4705 102.652C51.807 101.645 51.9752 100.134 51.9752 98.1193V56.4879C51.9752 54.4174 51.807 52.9066 51.4705 51.9554C51.1903 50.9482 50.5454 50.2767 49.5362 49.941C48.5831 49.5492 47.1813 49.3255 45.3311 49.2695V47.5908C47.5177 47.6468 49.7885 47.7027 52.1434 47.7587C54.5544 47.7587 56.9092 47.7866 59.208 47.8426C61.5629 47.8426 63.7495 47.8426 65.768 47.8426C67.7864 47.8426 69.4405 47.8426 70.73 47.8426C73.3092 47.8426 76.2247 47.8426 79.4767 47.8426C82.7847 47.7866 85.7283 47.7027 88.3075 47.5908ZM75.4398 76.9679C75.4398 76.9679 75.4398 77.2476 75.4398 77.8072C75.4398 78.3668 75.4398 78.6466 75.4398 78.6466H59.1239C59.1239 78.6466 59.1239 78.3668 59.1239 77.8072C59.1239 77.2476 59.1239 76.9679 59.1239 76.9679H75.4398ZM77.2059 65.8885C76.9816 69.078 76.8695 71.5121 76.8695 73.1908C76.9257 74.8695 76.9536 76.4082 76.9536 77.8072C76.9536 79.2062 76.9816 80.7449 77.0377 82.4236C77.0939 84.1023 77.2339 86.5364 77.4582 89.7259H75.5239C75.2995 87.8793 74.9631 86.1167 74.5146 84.438C74.0662 82.7033 73.2531 81.3046 72.0757 80.2413C70.8982 79.1781 69.1321 78.6466 66.7772 78.6466V76.9679C68.5713 76.9679 69.9731 76.6042 70.9823 75.8767C72.0477 75.1492 72.8606 74.198 73.4213 73.0229C73.9821 71.8479 74.3744 70.6449 74.5988 69.4138C74.879 68.1268 75.1034 66.9518 75.2716 65.8885H77.2059Z" fill="#F1E7FE"/>
<path d="M107.207 30.2653C105.529 30.2949 104.242 30.4124 103.353 30.6191C102.514 30.7964 101.943 31.1519 101.647 31.6842C101.35 32.187 101.2 32.9871 101.2 34.0816L101.225 102.312C101.225 103.377 101.374 104.177 101.671 104.709C101.967 105.242 102.537 105.597 103.377 105.775C104.266 105.952 105.553 106.069 107.231 106.128V107.016C106.095 106.957 104.66 106.926 102.931 106.926C101.252 106.896 99.5465 106.883 97.8175 106.883C95.8911 106.883 94.0876 106.896 92.4082 106.926C90.7287 106.926 89.3692 106.957 88.3318 107.016V106.128C90.0115 106.069 91.2729 105.952 92.1126 105.775C93.0014 105.597 93.5956 105.242 93.8918 104.709C94.1879 104.177 94.3319 103.376 94.3319 102.312L94.3077 34.0816C94.3077 32.9873 94.1639 32.187 93.8676 31.6842C93.5712 31.1519 92.9774 30.7966 92.0884 30.6191C91.2487 30.412 89.9871 30.2949 88.3076 30.2653V29.3771C89.345 29.4067 90.7043 29.4377 92.3841 29.4673C94.0636 29.4969 95.867 29.5107 97.7933 29.5107C99.5223 29.5107 101.227 29.4969 102.907 29.4673C104.635 29.4377 106.071 29.4067 107.207 29.3771V30.2653Z" fill="#C45C00"/>
<path d="M129.956 49.9074C132.546 49.9074 134.646 50.2992 136.255 51.0825C137.864 51.8268 139.336 52.7081 140.67 53.7264C141.181 54.1182 141.573 54.314 141.848 54.314C142.594 54.314 143.084 53.1194 143.32 50.73H144.674C144.595 52.2183 144.536 54.0202 144.497 56.1353C144.458 58.2113 144.438 60.9924 144.438 64.4784H143.084C142.809 62.5983 142.437 60.8552 141.966 59.2493C141.534 57.6434 140.769 56.2724 139.67 55.1365C138.61 53.8832 137.217 52.9039 135.49 52.1988C133.802 51.4938 132.075 51.1412 130.309 51.1412C128.268 51.1412 126.463 51.6505 124.893 52.6689C123.323 53.6482 121.988 55.0583 120.889 56.8991C119.83 58.74 119.006 60.9139 118.417 63.4209C117.867 65.8885 117.593 68.6107 117.593 71.5877C117.593 78.6382 118.672 83.8085 120.831 87.0987C123.028 90.3497 126.325 91.9753 130.721 91.9753C131.977 91.9753 133.056 91.7991 133.959 91.4466C134.901 91.094 135.647 90.7415 136.196 90.389C136.863 89.9189 137.295 89.4684 137.491 89.0376C137.687 88.5676 137.786 87.9605 137.786 87.2163V81.5171C137.786 79.8328 137.629 78.5989 137.315 77.8156C137.04 76.993 136.471 76.4447 135.607 76.1705C134.744 75.8572 133.488 75.6809 131.84 75.6417V74.4666C132.585 74.5059 133.468 74.5449 134.489 74.5841C135.509 74.5841 136.569 74.6036 137.668 74.6429C138.806 74.6429 139.827 74.6429 140.729 74.6429C142.142 74.6429 143.418 74.6234 144.556 74.5841C145.733 74.5449 146.695 74.5059 147.441 74.4666V75.6417C146.616 75.6809 145.988 75.818 145.557 76.053C145.164 76.288 144.89 76.758 144.733 77.4631C144.615 78.1681 144.556 79.2452 144.556 80.6946V92.3279H143.379C143.339 91.6621 143.182 90.9373 142.908 90.154C142.672 89.3706 142.299 88.9789 141.789 88.9789C141.514 88.9789 141.22 89.0376 140.906 89.1551C140.631 89.2727 140.141 89.5664 139.434 90.0365C138.06 90.9765 136.628 91.7403 135.136 92.3279C133.645 92.8762 131.957 93.1504 130.073 93.1504C125.874 93.1504 122.283 92.3279 119.3 90.6827C116.317 88.9984 114.041 86.5895 112.471 83.456C110.94 80.2833 110.175 76.523 110.175 72.1752C110.175 67.6316 111.019 63.6951 112.706 60.3656C114.433 57.0362 116.768 54.4707 119.712 52.6689C122.695 50.828 126.11 49.9074 129.956 49.9074Z" fill="#F1E7FE"/>
<path d="M154.118 78.9823C155.598 78.9823 156.759 79.4272 157.6 80.3169C158.441 81.2066 158.862 82.6167 158.862 84.5472H150.157L150.106 84.0687H156.187C156.204 83.2462 156.137 82.4908 155.985 81.8025C155.834 81.0975 155.598 80.5351 155.279 80.1154C154.959 79.6957 154.539 79.4859 154.017 79.4859C153.294 79.4859 152.663 79.872 152.125 80.6442C151.604 81.3996 151.284 82.6167 151.166 84.2954L151.242 84.4212C151.225 84.6563 151.208 84.9165 151.191 85.2018C151.175 85.4704 151.166 85.739 151.166 86.0076C151.166 87.1659 151.343 88.1395 151.696 88.9285C152.049 89.7175 152.512 90.3134 153.084 90.7163C153.656 91.1024 154.236 91.2955 154.825 91.2955C155.279 91.2955 155.716 91.2283 156.137 91.094C156.574 90.943 156.986 90.6995 157.373 90.3638C157.76 90.0113 158.105 89.5329 158.407 88.9285L158.912 89.13C158.71 89.7007 158.399 90.2631 157.979 90.8171C157.558 91.371 157.02 91.8243 156.364 92.1768C155.708 92.5125 154.942 92.6804 154.068 92.6804C152.89 92.6804 151.864 92.4202 150.99 91.8998C150.115 91.3626 149.442 90.5988 148.971 89.6084C148.5 88.618 148.265 87.4429 148.265 86.0832C148.265 84.5891 148.509 83.3133 148.996 82.2557C149.484 81.1982 150.165 80.3924 151.04 79.8384C151.932 79.2677 152.958 78.9823 154.118 78.9823ZM169.331 78.9823C170.003 78.9823 170.55 79.0746 170.971 79.2593C171.408 79.4272 171.77 79.6622 172.056 79.9643C172.358 80.2833 172.569 80.6946 172.686 81.1982C172.821 81.7018 172.888 82.3816 172.888 83.2378V89.9861C172.888 90.6912 173.023 91.1696 173.292 91.4214C173.578 91.6732 174.049 91.7991 174.705 91.7991V92.3279C174.419 92.3111 173.973 92.2943 173.368 92.2775C172.762 92.2439 172.165 92.2272 171.576 92.2272C171.004 92.2272 170.432 92.2439 169.861 92.2775C169.305 92.2943 168.885 92.3111 168.599 92.3279V91.7991C169.171 91.7991 169.575 91.6732 169.81 91.4214C170.046 91.1696 170.163 90.6912 170.163 89.9861V82.5327C170.163 82.0459 170.121 81.6094 170.037 81.2234C169.953 80.8205 169.776 80.5015 169.507 80.2665C169.238 80.0147 168.834 79.8888 168.296 79.8888C167.674 79.8888 167.119 80.0651 166.631 80.4176C166.16 80.7701 165.782 81.2569 165.496 81.878C165.226 82.4824 165.092 83.1622 165.092 83.9176V89.9861C165.092 90.6912 165.21 91.1696 165.445 91.4214C165.697 91.6732 166.101 91.7991 166.656 91.7991V92.3279C166.387 92.3111 165.975 92.2943 165.42 92.2775C164.882 92.2439 164.318 92.2272 163.729 92.2272C163.158 92.2272 162.56 92.2439 161.938 92.2775C161.316 92.2943 160.853 92.3111 160.55 92.3279V91.7991C161.206 91.7991 161.669 91.6732 161.938 91.4214C162.224 91.1696 162.367 90.6912 162.367 89.9861V82.0795C162.367 81.3241 162.241 80.7701 161.989 80.4176C161.736 80.0483 161.257 79.8636 160.55 79.8636V79.3348C161.089 79.3852 161.61 79.4104 162.115 79.4104C162.687 79.4104 163.216 79.3852 163.704 79.3348C164.209 79.2677 164.671 79.1753 165.092 79.0578V81.8025C165.529 80.7617 166.126 80.0315 166.883 79.6118C167.657 79.1921 168.473 78.9823 169.331 78.9823Z" fill="#F1E7FE"/>
<path d="M206.892 50.73C206.735 52.2968 206.617 53.8244 206.539 55.3128C206.5 56.8012 206.48 57.9372 206.48 58.7205C206.48 59.6214 206.5 60.4832 206.539 61.3057C206.578 62.1283 206.617 62.8333 206.657 63.4209H205.303C204.949 60.5614 204.459 58.3288 203.831 56.7229C203.242 55.0778 202.339 53.9027 201.123 53.1976C199.906 52.4534 198.159 52.0813 195.883 52.0813H192.763C191.507 52.0813 190.545 52.1988 189.878 52.4338C189.25 52.6296 188.818 53.0606 188.583 53.7264C188.347 54.3532 188.23 55.352 188.23 56.7229V85.9824C188.23 87.4318 188.387 88.5284 188.701 89.2727C189.015 89.9777 189.603 90.4477 190.467 90.6828C191.33 90.9178 192.606 91.0548 194.294 91.094V92.3279C193.234 92.2496 191.86 92.2104 190.172 92.2104C188.485 92.1711 186.738 92.1516 184.933 92.1516C183.363 92.1516 181.852 92.1711 180.4 92.2104C178.987 92.2104 177.79 92.2496 176.809 92.3279V91.1528C178.143 91.0745 179.144 90.9178 179.811 90.6828C180.478 90.4477 180.91 89.9777 181.106 89.2727C181.342 88.5676 181.459 87.51 181.459 86.0999V56.9579C181.459 55.5086 181.342 54.451 181.106 53.7852C180.91 53.0801 180.459 52.6101 179.752 52.3751C179.085 52.1008 178.104 51.9443 176.809 51.9051V50.73C178.339 50.7692 179.929 50.8082 181.577 50.8475C183.265 50.8475 184.913 50.867 186.522 50.9062C188.171 50.9062 189.702 50.9062 191.114 50.9062C192.527 50.9062 193.685 50.9062 194.588 50.9062C196.393 50.9062 198.434 50.9062 200.711 50.9062C203.026 50.867 205.087 50.8082 206.892 50.73ZM197.885 71.2939C197.885 71.2939 197.885 71.4897 197.885 71.8815C197.885 72.2732 197.885 72.469 197.885 72.469H186.464C186.464 72.469 186.464 72.2732 186.464 71.8815C186.464 71.4897 186.464 71.2939 186.464 71.2939H197.885ZM199.121 63.5384C198.964 65.771 198.886 67.4749 198.886 68.65C198.925 69.8251 198.944 70.9021 198.944 71.8815C198.944 72.8608 198.964 73.9378 199.003 75.1129C199.043 76.288 199.141 77.9919 199.298 80.2245H197.944C197.786 78.9319 197.551 77.6981 197.237 76.523C196.923 75.3087 196.354 74.3296 195.53 73.5853C194.706 72.841 193.469 72.469 191.821 72.469V71.2939C193.077 71.2939 194.058 71.0394 194.764 70.5301C195.51 70.0208 196.079 69.355 196.472 68.5325C196.864 67.7099 197.139 66.8678 197.296 66.006C197.492 65.1052 197.649 64.2827 197.767 63.5384H199.121Z" fill="#F1E7FE"/>
<path d="M209.02 72.5865V89.9861C209.02 90.6911 209.155 91.1696 209.424 91.4214C209.71 91.6732 210.181 91.7991 210.837 91.7991V92.3279C210.551 92.3111 210.105 92.2943 209.499 92.2775C208.894 92.2439 208.288 92.2271 207.683 92.2271C207.077 92.2271 206.463 92.2439 205.841 92.2775C205.235 92.2943 204.781 92.3111 204.479 92.3279V91.7991C205.135 91.7991 205.597 91.6732 205.866 91.4214C206.152 91.1696 206.295 90.6911 206.295 89.9861V75.6081C206.295 74.8527 206.169 74.2988 205.917 73.9462C205.664 73.5769 205.185 73.3923 204.479 73.3923V72.8635C205.017 72.9138 205.538 72.939 206.043 72.939C206.598 72.939 207.128 72.9138 207.632 72.8635C208.137 72.7963 208.6 72.704 209.02 72.5865ZM218.107 78.9823C219.234 78.9823 220.235 79.2173 221.11 79.6873C221.984 80.1574 222.683 80.896 223.204 81.9032C223.725 82.9104 223.986 84.2282 223.986 85.8565C223.986 87.4848 223.725 88.8026 223.204 89.8098C222.683 90.8003 221.984 91.5305 221.11 92.0005C220.235 92.4538 219.234 92.6804 218.107 92.6804C216.997 92.6804 215.996 92.4538 215.105 92.0005C214.213 91.5305 213.507 90.8003 212.985 89.8098C212.481 88.8026 212.229 87.4848 212.229 85.8565C212.229 84.2282 212.481 82.9104 212.985 81.9032C213.507 80.896 214.213 80.1574 215.105 79.6873C215.996 79.2173 216.997 78.9823 218.107 78.9823ZM218.107 79.4859C217.233 79.4859 216.518 79.9895 215.963 80.9967C215.408 81.9871 215.13 83.6071 215.13 85.8565C215.13 88.106 215.408 89.7259 215.963 90.7163C216.518 91.69 217.233 92.1768 218.107 92.1768C218.965 92.1768 219.672 91.69 220.227 90.7163C220.799 89.7259 221.085 88.106 221.085 85.8565C221.085 83.6071 220.799 81.9871 220.227 80.9967C219.672 79.9895 218.965 79.4859 218.107 79.4859ZM230.771 79.3348V79.8636C230.367 79.8636 230.006 79.8972 229.686 79.9643C229.383 80.0147 229.182 80.1658 229.081 80.4176C228.997 80.6694 229.064 81.1142 229.282 81.7521L231.831 89.2559L231.604 89.3566L235.06 79.2593L235.565 79.4859L231.2 92.4286C231.065 92.4286 230.931 92.4286 230.796 92.4286C230.662 92.4286 230.519 92.4286 230.367 92.4286L226.28 81.2737C226.011 80.6022 225.742 80.1993 225.473 80.065C225.22 79.9307 225.002 79.8636 224.817 79.8636V79.3348C225.22 79.3852 225.632 79.4271 226.053 79.4607C226.49 79.4775 226.97 79.4859 227.491 79.4859C228.013 79.4859 228.559 79.4691 229.131 79.4355C229.72 79.402 230.266 79.3684 230.771 79.3348ZM244.396 79.3348V79.8384C244.076 79.8888 243.773 80.0483 243.487 80.3169C243.201 80.5854 242.949 81.0639 242.73 81.7521L239.173 92.4286C239.038 92.4286 238.895 92.4286 238.744 92.4286C238.609 92.4286 238.475 92.4286 238.34 92.4286L234.43 82.3313L235.06 79.2593C235.229 79.2761 235.388 79.2845 235.54 79.2845C235.708 79.2677 235.876 79.2593 236.044 79.2593L239.829 89.5832L239.602 89.6084L241.822 82.7593C242.041 82.0711 242.125 81.5255 242.074 81.1226C242.024 80.7197 241.847 80.4176 241.545 80.2161C241.242 80.0147 240.788 79.8888 240.182 79.8384V79.3348C240.485 79.3516 240.754 79.3684 240.99 79.3852C241.242 79.3852 241.486 79.3936 241.721 79.4104C241.974 79.4104 242.226 79.4104 242.478 79.4104C242.848 79.4104 243.193 79.402 243.513 79.3852C243.849 79.3684 244.143 79.3516 244.396 79.3348Z" fill="#F1E7FE"/>
</svg>
